<svg xmlns="http://www.w3.org/2000/svg" version="1.1" xmlns:xlink="http://www.w3.org/1999/xlink" xmlns:svgjs="http://svgjs.dev/svgjs" width="1440" height="306" preserveAspectRatio="none" viewBox="0 0 1440 306"><g mask="url(&quot;#SvgjsMask4057&quot;)" fill="none"><rect width="1440" height="306" x="0" y="0" fill="url(&quot;#SvgjsLinearGradient4058&quot;)"></rect><path d="M1512 306L0 306 L0 114Q92.3 134.3, 72 226.6Q68.97 151.57, 144 148.54Q174.62 107.16, 216 137.77Q245.94 95.71, 288 125.64Q385.71 103.34, 408 201.05Q421.02 142.07, 480 155.09Q501.09 104.18, 552 125.27Q579.86 81.13, 624 108.98Q679.23 92.21, 696 147.43Q781.1 112.53, 816 197.62Q861.6 171.22, 888 216.82Q920.15 128.97, 1008 161.12Q1052.71 85.83, 1128 130.54Q1155.4 85.94, 1200 113.34Q1279.03 72.37, 1320 151.4Q1394.84 106.24, 1440 181.07Q1502.06 171.13, 1512 233.18z" fill="rgba(233, 165, 3, 0.93)"></path><path d="M1536 306L0 306 L0 234.5Q87.09 201.59, 120 288.68Q164.43 213.11, 240 257.54Q282.16 179.71, 360 221.87Q432.4 174.27, 480 246.67Q564.38 211.05, 600 295.43Q645.75 221.18, 720 266.93Q755.65 182.59, 840 218.24Q911.72 169.96, 960 241.68Q1064.81 226.49, 1080 331.3Q1100.01 279.31, 1152 299.31Q1196.16 271.47, 1224 315.63Q1261.49 233.12, 1344 270.6Q1359.46 214.06, 1416 229.53Q1484.7 178.23, 1536 246.93z" fill="rgba(255, 188, 22, 0.8)"></path></g><defs><mask id="SvgjsMask4057"><rect width="1440" height="306" fill="#ffffff"></rect></mask><linearGradient x1="19.69%" y1="192.65%" x2="80.31%" y2="-92.65%" gradientUnits="userSpaceOnUse" id="SvgjsLinearGradient4058"><stop stop-color="rgba(255, 255, 255, 1)" offset="0"></stop><stop stop-color="rgba(255, 255, 255, 0)" offset="1"></stop></linearGradient></defs></svg>