<svg xmlns="http://www.w3.org/2000/svg" version="1.1" xmlns:xlink="http://www.w3.org/1999/xlink" xmlns:svgjs="http://svgjs.dev/svgjs" width="1440" height="560" preserveAspectRatio="none" viewBox="0 0 1440 560"><g mask="url(&quot;#SvgjsMask2645&quot;)" fill="none"><rect width="1440" height="560" x="0" y="0" fill="url(&quot;#SvgjsLinearGradient2646&quot;)"></rect><path d="M1488 560L0 560 L0 437.47Q54 419.47, 72 473.46Q126.15 407.61, 192 461.76Q224.42 374.18, 312 406.6Q323.03 345.63, 384 356.66Q428.76 329.43, 456 374.19Q549.93 396.13, 528 490.06Q500.37 390.43, 600 362.79Q633.23 324.02, 672 357.25Q776.61 341.86, 792 446.47Q846 380.48, 912 434.48Q966.41 416.89, 984 471.3Q1036.25 403.55, 1104 455.8Q1179.41 411.22, 1224 486.63Q1235.75 426.38, 1296 438.14Q1369.08 391.22, 1416 464.29Q1466.32 442.61, 1488 492.93z" fill="rgba(233, 165, 3, 1)"></path><path d="M1464 560L0 560 L0 552.42Q55.89 536.31, 72 592.19Q105.45 505.64, 192 539.09Q243.13 470.23, 312 521.36Q376.65 514.01, 384 578.67Q404.59 479.25, 504 499.84Q577.51 453.35, 624 526.86Q695.87 526.73, 696 598.59Q747.08 529.67, 816 580.76Q803.86 496.62, 888 484.48Q911.1 435.58, 960 458.68Q1045.23 423.91, 1080 509.14Q1140.7 497.84, 1152 558.54Q1219.18 505.72, 1272 572.9Q1282.51 511.4, 1344 521.91Q1398.93 456.84, 1464 511.77z" fill="rgba(255, 188, 22, 1)"></path></g><defs><mask id="SvgjsMask2645"><rect width="1440" height="560" fill="#ffffff"></rect></mask><linearGradient x1="15.28%" y1="139.29%" x2="84.72%" y2="-39.29%" gradientUnits="userSpaceOnUse" id="SvgjsLinearGradient2646"><stop stop-color="rgba(255, 255, 255, 1)" offset="0"></stop><stop stop-color="rgba(255, 255, 255, 0)" offset="1"></stop></linearGradient></defs></svg>