<svg width="666" height="172" viewBox="0 0 666 172" fill="none" xmlns="http://www.w3.org/2000/svg">
<path d="M25 18.5C27.9574 27.3723 37.3203 35.6223 46.932 39.3191C56.5436 40.0585 69.1127 49.6701 85.3786 53.3669C101.645 57.0637 126.043 77.0264 158.575 68.8935C191.107 60.7605 245.08 50.4095 250.256 53.3669C255.431 56.3244 313.841 57.0637 333.064 67.4147C334.838 67.4147 341.197 68.4006 344.154 68.8935C366.089 77.7658 409.957 94.3274 409.957 89.5955C415.133 89.5955 488.329 102.904 489.069 108.079C489.66 112.22 509.524 114.734 519.382 115.473C528.548 115.772 541.418 116.317 553.5 118L558.449 118.206C560.718 118.046 562.134 117.638 565.5 118.5C575.125 120.964 587.403 127.394 587.403 131.739C587.403 135.12 592.797 137.711 599.5 142C600.167 142.427 600.831 142.89 601.499 143.379L614 152C628.993 159.237 647.098 166.095 659.121 170.186L664.866 170.707V171.687H2.4375V0.872437C6.3678 1.8033 4.0517 2.39231 9.5 4.5C17.034 7.41457 23.627 14.3809 25 18.5Z" fill="url(#paint0_linear)"/>
<g style="mix-blend-mode:darken">
<path d="M665 170.723C640.147 169.021 603.957 146.149 585.185 131.739C577.052 105.122 511.249 127.303 482.414 105.122C482.414 105.122 432.37 89.8206 409.039 89.4811C381.506 89.0805 377.825 75.2162 326.99 64.2082C276.155 53.2001 270.772 55.1698 242.075 53.3256C220.697 51.9517 182.306 66.7491 150.455 68.7796C106.202 71.6006 80.7714 48.0769 60.3393 43.7601C18.7931 34.9827 32.6938 8.11028 1.74707 1.79871" stroke="url(#paint1_linear)" stroke-width="2" stroke-linecap="round" stroke-linejoin="round"/>
<path d="M408.224 100.813C413.485 100.813 417.75 96.5476 417.75 91.2865C417.75 86.0255 413.485 81.7605 408.224 81.7605C402.963 81.7605 398.698 86.0255 398.698 91.2865C398.698 96.5476 402.963 100.813 408.224 100.813ZM328.795 75.5395C334.056 75.5395 338.321 71.2746 338.321 66.0135C338.321 60.7524 334.056 56.4874 328.795 56.4874C323.534 56.4874 319.269 60.7524 319.269 66.0135C319.269 71.2746 323.534 75.5395 328.795 75.5395ZM245.754 64.7082C251.015 64.7082 255.28 60.4433 255.28 55.1822C255.28 49.9211 251.015 45.6561 245.754 45.6561C240.493 45.6561 236.228 49.9211 236.228 55.1822C236.228 60.4433 240.493 64.7082 245.754 64.7082ZM159.106 79.1504C164.367 79.1504 168.632 74.8854 168.632 69.6243C168.632 64.3632 164.367 60.0983 159.106 60.0983C153.845 60.0983 149.58 64.3632 149.58 69.6243C149.58 74.8854 153.845 79.1504 159.106 79.1504ZM72.4548 57.4875C77.7158 57.4875 81.9808 53.2226 81.9808 47.9615C81.9808 42.7004 77.7158 38.4354 72.4548 38.4354C67.1937 38.4354 62.9287 42.7004 62.9287 47.9615C62.9287 53.2226 67.1937 57.4875 72.4548 57.4875ZM487.744 117.02C493.005 117.02 497.27 112.755 497.27 107.494C497.27 102.233 493.005 97.9678 487.744 97.9678C482.483 97.9678 478.218 102.233 478.218 107.494C478.218 112.755 482.483 117.02 487.744 117.02ZM585.339 142.158C590.6 142.158 594.865 137.893 594.865 132.632C594.865 127.371 590.6 123.106 585.339 123.106C580.078 123.106 575.813 127.371 575.813 132.632C575.813 137.893 580.078 142.158 585.339 142.158Z" fill="url(#paint2_linear)" stroke="white"/>
</g>
<defs>
<linearGradient id="paint0_linear" x1="280.067" y1="1.00006" x2="595.067" y2="295.5" gradientUnits="userSpaceOnUse">
<stop stop-color="#7D95C4" stop-opacity="0.22"/>
<stop offset="1" stop-color="#A0ABD0"/>
</linearGradient>
<linearGradient id="paint1_linear" x1="110.566" y1="33.5" x2="598.066" y2="171" gradientUnits="userSpaceOnUse">
<stop stop-color="#65779F"/>
<stop offset="1" stop-color="#324576"/>
</linearGradient>
<linearGradient id="paint2_linear" x1="119.066" y1="13.4999" x2="614.566" y2="158.5" gradientUnits="userSpaceOnUse">
<stop stop-color="#405D94"/>
<stop offset="1" stop-color="#3B4977"/>
</linearGradient>
</defs>
</svg>
